# xmcd
#
# Track frame offsets:
#	150
#	18025
#	36724
#	59244
#	76453
#	93359
#	109563
#	130016
#	149491
#	166791
#
# Disc length: 2511 seconds
# Revision: 0
# Processed by: cddbd v1.5.2PL0 Copyright (c) Steve Scherf et al.
# Submitted via: dBpowerAMP V12.0
#
DISCID=8309cd0a
DTITLE=Crystal Shawanda - The Whole World's Got The Blues
DYEAR=2015
DGENRE=Blues
TTITLE0=I'm Not Your Baby
TTITLE1=What You Gonna Do About Me
TTITLE2=The Whole World's Got The Blues
TTITLE3=I'll Always Love You
TTITLE4=Cry Out For More
TTITLE5=Fall From Grace
TTITLE6=All I Could Do Was Cry
TTITLE7=Pray Sister Pray
TTITLE8=Blue Guitar
TTITLE9=Blue Train
EXTD=
EXTT0=
EXTT1=
EXTT2=
EXTT3=
EXTT4=
EXTT5=
EXTT6=
EXTT7=
EXTT8=
EXTT9=
PLAYORDER=
